Genre:Animation | Adventure | Comedy
Language:English
IMDb: http://www.imdb.com/title/tt1436562/
Source:DVD ELEKTRI4KA/R5 LINE IMAGINE.Thanks!
Subtitles:Romana

Format : MPEG-4
Format profile : Base Media
Codec ID : isom
File size : 934 MiB
Duration : 1h 31mn
Overall bit rate : 1 420 Kbps

Video
Format profile : High@L4.1
Format settings, CABAC : Yes
Format settings, ReFrames : 3 frames
Codec ID : avc1
Codec ID/Info : Advanced Video Coding
Duration : 1h 31mn
Bit rate mode : Variable
Bit rate : 1 200 Kbps
Maximum bit rate : 4 520 Kbps
Width : 720 pixels
Height : 304 pixels
Display aspect ratio : 2.35:1
Frame rate mode : Constant
Frame rate : 25.000 fps
Color space : YUV
Chroma subsampling : 4:2:0
Bit depth : 8 bits
Scan type : Progressive
Bits/(Pixel*Frame) : 0.219
Stream size : 784 MiB (84%)
Writing library : x264

Audio
ID : 2
Format : AAC
Format/Info : Advanced Audio Codec
Format version : Version 4
Format profile : LC
Format settings, SBR : No
Codec ID : 40
Duration : 1h 31mn
Bit rate mode : Variable
Bit rate : 224 Kbps
Maximum bit rate : 273 Kbps
Channel(s) : 2 channels
Channel positions : Front: L R
Sampling rate : 44.1 KHz
Stream size : 147 MiB (16%)


Plot:
When Blu, a domesticated macaw from small-town Minnesota, meets the fiercely independent Jewel, he takes off on an adventure to Rio de Janeiro with this bird of his dreams.


Screens:
 
http://shareimage.org/images/k3ls2ka7hg2vwlys1pah.png 
http://shareimage.org/images/s4c94wtnmk0wdksym88l.png 
http://shareimage.org/images/k54hbqxenueszv6y1zo.png 
http://shareimage.org/images/ld2icroevy7cpkaopyjw.png 
http://shareimage.org/images/4do1fgqyyi8sg0xosyc9.png

Greets:

INK,CRYS,IMAGINE,LKRG,FXG,3Li,FLAWL3SS,TA,iLLUSiON,ViSiON,DTRG SAFCuk009,LU,TheFalcon007,MYSTiC,PrisM,Noir,WBZ,LAP,Rx,Kingdom,SAFCuk009+Fabreezy,HDLiTE,TWiZTED,ExtraTorrentRG.ELEKTRI4KA,MAGNAT,CM8
And to all the other p2p grps past and present.